#N canvas 585 25 685 610 12;
#X obj 493 11 cnv 15 180 54 empty empty empty 20 12 0 14 #ff9300 #404040
0;
#X obj 495 13 pipe_organ-main;
#X obj 129 382 cnv 15 544 208 empty empty empty 20 12 0 14 #ff9300
#404040 0;
#X obj 8 382 cnv 15 112 208 empty empty empty 20 12 0 14 #ff9300 #404040
0;
#X obj 493 301 cnv 15 180 64 empty empty empty 20 12 0 14 #ff9300 #404040
0;
#X obj 493 72 cnv 15 180 220 empty empty empty 20 12 0 14 #ff9300 #404040
0;
#X obj 263 12 cnv 15 218 354 empty empty empty 20 12 0 14 #ff9300 #404040
0;
#X obj 265 14 cnv 15 214 350 empty empty Registers 20 12 0 18 #ffd479
#ff9300 0;
#X obj 8 278 cnv 15 242 88 empty empty empty 20 12 0 14 #ff9300 #404040
0;
#X obj 8 12 cnv 15 242 254 empty empty empty 20 12 0 14 #ff9300 #404040
0;
#X obj 10 280 cnv 15 238 84 empty empty Presets 20 12 0 18 #ffd479
#ff9300 0;
#X obj 30 334 hradio 15 1 0 6 presetsreg tastireg presets_registers
0 -8 0 10 #fcfcfc #000000 #000000 0;
#X obj 150 334 hradio 15 1 0 6 presets tasti presets 0 -8 0 10 #fcfcfc
#000000 #000000 0;
#X obj 10 14 cnv 15 238 250 empty empty Tuner 20 12 0 18 #ffd479 #ff9300
0;
#X floatatom 204 38 5 400 460 0 A4: r_diapason s_diapason, f 5;
#X obj 31 78 vradio 15 0 0 9 s_temp-sel r_temp-sel empty 0 -8 0 10
#fcfcfc #000000 #000000 5;
#X text 51 137 Equal Tempered;
#X text 51 107 Aaron 1/4 comma;
#X text 51 152 Kirnberger III;
#X text 51 92 Pythagorean tuning;
#X text 51 76 Just tuning;
#X text 51 122 Salinas 1/3 comma;
#X text 51 167 Wercmeister III;
#X text 51 182 Vallotti;
#X obj 285 74 tgl 15 1 s_principale16 r_principale16 principale_16'
0 -10 0 10 #fcfcfc #000000 #000000 0 1;
#X obj 285 114 tgl 15 1 s_corno r_corno corno_inglese 0 -10 0 10 #fcfcfc
#000000 #000000 0 1;
#X obj 285 154 tgl 15 1 s_fagotto16 r_fagotto16 fagotto_16' 0 -10 0
10 #fcfcfc #000000 #000000 0 1;
#X obj 285 194 tgl 15 1 s_principale8 r_principale8 principale_8' 0
-10 0 10 #fcfcfc #000000 #000000 0 1;
#X obj 285 234 tgl 15 1 s_ottava4 r_ottava4 ottava_4' 0 -10 0 10 #fcfcfc
#000000 #000000 0 1;
#X obj 285 274 tgl 15 1 s_tromba8 r_tromba8 tromba_8' 0 -10 0 10 #fcfcfc
#000000 #000000 0 1;
#X obj 285 314 tgl 15 1 s_violabassi4 r_violabassi4 viola_bassi_4'
0 -10 0 10 #fcfcfc #000000 #000000 0 1;
#X obj 405 74 tgl 15 1 s_flauto4 r_flauto4 flauto_4' 0 -10 0 10 #fcfcfc
#000000 #000000 0 1;
#X obj 405 114 tgl 15 1 s_ottavino r_ottavino ottavino 0 -10 0 10 #fcfcfc
#000000 #000000 0 1;
#X obj 405 154 tgl 15 1 s_duodecima r_duodecima duodecima 0 -10 0 10
#fcfcfc #000000 #000000 0 1;
#X obj 405 194 tgl 15 1 s_cornetto r_cornetto cornetto 0 -10 0 10 #fcfcfc
#000000 #000000 0 1;
#X obj 405 234 tgl 15 1 s_voce r_voce voce 0 -10 0 10 #fcfcfc #000000
#000000 0 1;
#X obj 405 274 tgl 15 1 s_tromboni r_tromboni tromboni 0 -10 0 10 #fcfcfc
#000000 #000000 0 1;
#X obj 10 384 cnv 15 108 204 empty empty Volume 19 12 0 18 #ffd479
#ff9300 0;
#X obj 50 445 vsl 20 128 0 127 0 0 s_vol_usu r_vol empty 0 -9 0 10
#fcfcfc #000000 #000000 12700 1;
#X obj 131 384 cnv 15 540 204 empty empty Consolle 20 12 0 18 #ffd479
#ff9300 0;
#X obj 151 447 vsl 20 126 -40 60 0 0 s1_user r1 16' 0 -9 0 10 #fcfcfc
#000000 #000000 0 1;
#X obj 211 447 vsl 20 126 -40 60 0 0 s2_user r2 16'\ 1/3 0 -9 0 10
#fcfcfc #000000 #000000 0 1;
#X obj 271 447 vsl 20 126 -40 60 0 0 s3_user r3 8' 0 -9 0 10 #fcfcfc
#000000 #000000 12500 1;
#X obj 331 447 vsl 20 126 -40 60 0 0 s4_user r4 4' 0 -9 0 10 #fcfcfc
#000000 #000000 0 1;
#X obj 391 447 vsl 20 126 -40 60 0 0 s5_user r5 2'\ 2/3 0 -9 0 10 #fcfcfc
#000000 #000000 0 1;
#X obj 451 447 vsl 20 126 -40 60 0 0 s6_user r6 2' 0 -9 0 10 #fcfcfc
#000000 #000000 2500 1;
#X obj 511 447 vsl 20 126 -40 60 0 0 s7_user r7 1'\ 3/5 0 -9 0 10 #fcfcfc
#000000 #000000 0 1;
#X obj 571 447 vsl 20 126 -40 60 0 0 s8_user r8 1'\ 1/3 0 -9 0 10 #fcfcfc
#000000 #000000 0 1;
#X obj 631 447 vsl 20 126 -40 60 0 0 s9_user r9 1' 0 -9 0 10 #fcfcfc
#000000 #000000 0 1;
#X obj 495 303 cnv 15 176 60 empty empty Tremolo 20 12 0 18 #ffd479
#ff9300 0;
#X obj 516 339 hsl 128 15 0 127 0 0 s_lfo_user r_lfo empty -2 -8 0
10 #fcfcfc #000000 #000000 0 1;
#X obj 495 74 cnv 15 176 216 empty empty Reverb 20 12 0 18 #ffd479
#ff9300 0;
#X obj 515 124 hsl 128 15 0 127 0 0 s_room_user r_room room -2 -8 0
10 #fcfcfc #000000 #000000 9000 1;
#X obj 515 164 hsl 128 15 0 127 0 0 s_damping_user r_damping damping
-2 -8 0 10 #fcfcfc #000000 #000000 2000 1;
#X obj 515 204 hsl 128 15 0 127 0 0 s_wet_user r_wet wet -2 -8 0 10
#fcfcfc #000000 #000000 9000 1;
#X obj 515 244 hsl 128 15 0 127 0 0 s_dry_user r_dry dry -2 -8 0 10
#fcfcfc #000000 #000000 11000 1;
#X obj 615 84 tgl 15 0 s_reverb_on r_reverb_on off 17 7 0 10 #fcfcfc
#000000 #000000 0 1;
#X obj 196 20 hradio 15 0 0 3 s_diapasel r_diapasel A4\ 415|432|440:
-91 8 0 10 #fcfcfc #ff9300 #000000 0;
#X obj 637 390 bng 15 250 50 0 s_panic r_panic panic -34 7 0 10 #ffffff
#ff9300 #000000;
#X text 51 198 Carlos Harmonic;
#X obj 30 233 hradio 15 1 0 12 s_root r_root Root 0 -8 0 10 #fcfcfc
#000000 #000000 0;
#X text 43 246 C#;
#X text 31 246 C;
#X text 62 246 D;
#X text 73 246 D#;
#X text 92 246 E;
#X text 107 246 F;
#X text 118 246 F#;
#X text 137 246 G;
#X text 149 246 G#;
#X text 167 246 A;
#X text 178 246 A#;
#X text 197 246 B;
