#N canvas 395 890 685 610 12;
#X obj 493 11 cnv 15 180 54 empty empty empty 20 12 0 14 #ff9300 #404040
0;
#X obj 495 13 pipe_organ-main;
#X obj 129 382 cnv 15 544 208 empty empty empty 20 12 0 14 #ff9300
#404040 0;
#X obj 8 382 cnv 15 112 208 empty empty empty 20 12 0 14 #ff9300 #404040
0;
#X obj 493 301 cnv 15 180 64 empty empty empty 20 12 0 14 #ff9300 #404040
0;
#X obj 493 72 cnv 15 180 220 empty empty empty 20 12 0 14 #ff9300 #404040
0;
#X obj 263 12 cnv 15 218 354 empty empty empty 20 12 0 14 #ff9300 #404040
0;
#X obj 265 14 cnv 15 214 350 empty empty Registros 20 12 0 18 #ffd479
#ff9300 0;
#X obj 8 12 cnv 15 242 354 empty empty empty 20 12 0 14 #ff9300 #404040
0;
#X obj 271 340 hradio 15 1 0 6 presetsreg tastireg presets_registers
0 -8 0 10 #fcfcfc #000000 #000000 0;
#X obj 384 340 hradio 15 1 0 6 presets tasti presets 0 -8 0 10 #fcfcfc
#000000 #000000 0;
#X obj 10 14 cnv 15 238 350 empty empty Afinador 20 12 0 18 #ffd479
#ff9300 0;
#X floatatom 204 90 5 400 460 0 Diapasson: r_diapason s_diapason,
f 5;
#X obj 37 134 vradio 15 0 0 9 s_temp-sel r_temp-sel empty 0 -8 0 10
#fcfcfc #000000 #000000 3;
#X text 57 163 Aaron 1/4 comma;
#X text 57 208 Kirnberger III;
#X text 57 178 Salinas 1/3 comma;
#X text 57 223 Wercmeister III;
#X text 57 238 Vallotti;
#X obj 285 59 tgl 15 1 s_principale16 r_principale16 principale_16'
0 -10 0 10 #fcfcfc #000000 #000000 0 1;
#X obj 285 99 tgl 15 1 s_corno r_corno corno_inglese 0 -10 0 10 #fcfcfc
#000000 #000000 1 1;
#X obj 285 139 tgl 15 1 s_fagotto16 r_fagotto16 fagotto_16' 0 -10 0
10 #fcfcfc #000000 #000000 0 1;
#X obj 285 179 tgl 15 1 s_principale8 r_principale8 principale_8' 0
-10 0 10 #fcfcfc #000000 #000000 1 1;
#X obj 285 219 tgl 15 1 s_ottava4 r_ottava4 ottava_4' 0 -10 0 10 #fcfcfc
#000000 #000000 0 1;
#X obj 285 259 tgl 15 1 s_tromba8 r_tromba8 tromba_8' 0 -10 0 10 #fcfcfc
#000000 #000000 0 1;
#X obj 285 299 tgl 15 1 s_violabassi4 r_violabassi4 viola_bassi_4'
0 -10 0 10 #fcfcfc #000000 #000000 0 1;
#X obj 405 59 tgl 15 1 s_flauto4 r_flauto4 flauto_4' 0 -10 0 10 #fcfcfc
#000000 #000000 0 1;
#X obj 405 99 tgl 15 1 s_ottavino r_ottavino ottavino 0 -10 0 10 #fcfcfc
#000000 #000000 0 1;
#X obj 405 139 tgl 15 1 s_duodecima r_duodecima duodecima 0 -10 0 10
#fcfcfc #000000 #000000 0 1;
#X obj 405 179 tgl 15 1 s_cornetto r_cornetto cornetto 0 -10 0 10 #fcfcfc
#000000 #000000 0 1;
#X obj 405 219 tgl 15 1 s_voce r_voce voce 0 -10 0 10 #fcfcfc #000000
#000000 0 1;
#X obj 405 259 tgl 15 1 s_tromboni r_tromboni tromboni 0 -10 0 10 #fcfcfc
#000000 #000000 0 1;
#X obj 10 380 cnv 15 108 204 empty empty Volumen 19 12 0 18 #ffd479
#ff9300 0;
#X obj 50 445 vsl 20 128 0 127 0 0 s_vol_usu r_vol empty 0 -9 0 10
#fcfcfc #000000 #000000 12700 1;
#X obj 131 384 cnv 15 540 204 empty empty Consola 20 12 0 18 #ffd479
#ff9300 0;
#X obj 151 447 vsl 20 126 -40 60 0 0 s1_user r1 16' 0 -9 0 10 #fcfcfc
#000000 #000000 0 1;
#X obj 211 447 vsl 20 126 -40 60 0 0 s2_user r2 16'\ 1/3 0 -9 0 10
#fcfcfc #000000 #000000 0 1;
#X obj 271 447 vsl 20 126 -40 60 0 0 s3_user r3 8' 0 -9 0 10 #fcfcfc
#000000 #000000 12402 1;
#X obj 331 447 vsl 20 126 -40 60 0 0 s4_user r4 4' 0 -9 0 10 #fcfcfc
#000000 #000000 5610 1;
#X obj 391 447 vsl 20 126 -40 60 0 0 s5_user r5 2'\ 2/3 0 -9 0 10 #fcfcfc
#000000 #000000 1181 1;
#X obj 451 447 vsl 20 126 -40 60 0 0 s6_user r6 2' 0 -9 0 10 #fcfcfc
#000000 #000000 0 1;
#X obj 511 447 vsl 20 126 -40 60 0 0 s7_user r7 1'\ 3/5 0 -9 0 10 #fcfcfc
#000000 #000000 0 1;
#X obj 571 447 vsl 20 126 -40 60 0 0 s8_user r8 1'\ 1/3 0 -9 0 10 #fcfcfc
#000000 #000000 0 1;
#X obj 631 447 vsl 20 126 -40 60 0 0 s9_user r9 1' 0 -9 0 10 #fcfcfc
#000000 #000000 0 1;
#X obj 495 303 cnv 15 176 60 empty empty Trémolo 20 12 0 18 #ffd479
#ff9300 0;
#X obj 516 339 hsl 128 15 0 127 0 0 s_lfo_user r_lfo empty -2 -8 0
10 #fcfcfc #000000 #000000 0 1;
#X obj 495 74 cnv 15 176 216 empty empty Reverb 20 12 0 18 #ffd479
#ff9300 0;
#X obj 515 124 hsl 128 15 0 127 0 0 s_room_user r_room Tamaño\ eñ\ habitación
-2 -8 0 10 #fcfcfc #000000 #000000 8100 1;
#X obj 515 164 hsl 128 15 0 127 0 0 s_damping_user r_damping damping
-2 -8 0 10 #fcfcfc #000000 #000000 2000 1;
#X obj 515 204 hsl 128 15 0 127 0 0 s_wet_user r_wet Húmedo -2 -8
0 10 #fcfcfc #000000 #000000 7200 1;
#X obj 515 244 hsl 128 15 0 127 0 0 s_dry_user r_dry Seco -2 -8 0 10
#fcfcfc #000000 #000000 10700 1;
#X obj 615 84 tgl 15 0 s_reverb_on r_reverb_on off 17 7 0 10 #fcfcfc
#000000 #000000 0 1;
#X obj 196 72 hradio 15 0 0 3 s_diapasel r_diapasel Quick\ tuner\ |415|432|440:
-153 7 0 10 #fcfcfc #ff9300 #000000 2;
#X obj 637 390 bng 15 250 50 0 s_panic r_panic botón\ pánico -75
6 0 10 #ffffff #ff9300 #000000;
#X obj 36 326 hradio 15 0 0 12 s_root r_root Fundamental 0 -8 0 10
#fcfcfc #000000 #000000 1;
#X text 49 339 C#;
#X text 37 339 C;
#X text 68 339 D;
#X text 79 339 D#;
#X text 98 339 E;
#X text 113 339 F;
#X text 124 339 F#;
#X text 143 339 G;
#X text 155 339 G#;
#X text 173 339 A;
#X text 184 339 A#;
#X text 203 339 B;
#X text 57 132 Afinación justa;
#X text 57 148 Afinación pitagórica;
#X text 57 193 Temperamento igual;
#X text 57 254 Escala espectral;
