#N canvas 23 79 556 973 10;
#X obj 30 140 notein 1;
#X obj 31 480 reverb;
#X obj 30 20 pddp/dsp;
#X obj 31 410 tremolo;
#X obj 290 700 presets;
#X obj 290 670 registri;
#X obj 30 844 dac~;
#X obj 31 652 out;
#X obj 30 200 consolle;
#X obj 30 170 tuner;
#X obj 290 730 temperaments;
#X obj 160 660 loadbang;
#X obj 101 101 cnv 15 174 48 empty empty Órgano\ Temperado 19 7 0
14 #90714c #000000 0;
#X text 146 133 & Pablo Herrera;
#X text 210 24 Authors: Nicola Simoni (nicola.simoni.89@gmail.com)
;
#N canvas 628 1228 150 165 diapasel 0;
#X obj 20 10 r s_diapasel;
#X obj 20 50 sel 0 1 2;
#X msg 5 90 415;
#X msg 37 90 432;
#X msg 70 90 440;
#X obj 37 130 s r_diapason;
#X connect 0 0 1 0;
#X connect 1 0 2 0;
#X connect 1 1 3 0;
#X connect 1 2 4 0;
#X connect 2 0 5 0;
#X connect 3 0 5 0;
#X connect 4 0 5 0;
#X restore 290 760 pd diapasel;
#X obj 160 700 del 10;
#N canvas 626 1175 450 451 shortcuts 0;
#X obj 20 -20 keyname;
#X symbolatom 20 10 10 0 0 0 - - -, f 10;
#X msg 20 59 0;
#X msg 50 60 1;
#X obj 10 120 s r_temp-sel;
#X msg 80 60 2;
#X msg 110 60 3;
#X msg 140 60 4;
#X msg 170 60 5;
#X msg 200 60 6;
#X msg 230 60 7;
#X obj 20 34 sel F1 F2 F3 F4 F5 F6 F7 F8 F9;
#X msg 260 60 8;
#X symbolatom 20 160 10 0 0 0 - - -, f 10;
#X msg 18 233 0;
#X msg 48 234 1;
#X msg 78 234 2;
#X msg 108 234 3;
#X msg 138 233 4;
#X msg 168 233 5;
#X obj 12 281 s tastireg;
#X msg 198 233 0;
#X msg 228 233 1;
#X msg 258 233 2;
#X msg 288 233 3;
#X msg 318 233 4;
#X msg 348 233 5;
#X obj 198 283 s tasti;
#X obj 20 184 sel q w e r t y u i o p [ ], f 64;
#X obj 20 320 sel Escape;
#X msg 20 345 bang;
#X obj 20 370 s r_panic;
#X connect 0 1 1 0;
#X connect 1 0 11 0;
#X connect 2 0 4 0;
#X connect 3 0 4 0;
#X connect 5 0 4 0;
#X connect 6 0 4 0;
#X connect 7 0 4 0;
#X connect 8 0 4 0;
#X connect 9 0 4 0;
#X connect 10 0 4 0;
#X connect 11 0 2 0;
#X connect 11 1 3 0;
#X connect 11 1 4 0;
#X connect 11 2 5 0;
#X connect 11 3 6 0;
#X connect 11 4 7 0;
#X connect 11 5 8 0;
#X connect 11 6 9 0;
#X connect 11 7 10 0;
#X connect 11 8 12 0;
#X connect 11 9 13 0;
#X connect 12 0 4 0;
#X connect 13 0 28 0;
#X connect 14 0 20 0;
#X connect 15 0 20 0;
#X connect 16 0 20 0;
#X connect 17 0 20 0;
#X connect 18 0 20 0;
#X connect 19 0 20 0;
#X connect 21 0 27 0;
#X connect 22 0 27 0;
#X connect 23 0 27 0;
#X connect 24 0 27 0;
#X connect 25 0 27 0;
#X connect 26 0 27 0;
#X connect 28 0 14 0;
#X connect 28 1 15 0;
#X connect 28 2 16 0;
#X connect 28 3 17 0;
#X connect 28 4 18 0;
#X connect 28 5 19 0;
#X connect 28 6 21 0;
#X connect 28 7 22 0;
#X connect 28 8 23 0;
#X connect 28 9 24 0;
#X connect 28 10 25 0;
#X connect 28 11 26 0;
#X connect 28 12 29 0;
#X connect 29 0 30 0;
#X connect 30 0 31 0;
#X restore 289 790 pd shortcuts;
#N canvas 530 1274 550 439 MIDI 0;
#X floatatom 20 53 5 0 0 0 - - -, f 5;
#N canvas 735 1176 100 159 mtor 0;
#X obj 15 10 inlet;
#X obj 15 33 * 100;
#X obj 15 56 / 127;
#X obj 15 79 - 40;
#X floatatom 15 102 5 0 0 0 - - -, f 5;
#X obj 15 124 outlet;
#X connect 0 0 1 0;
#X connect 1 0 2 0;
#X connect 2 0 3 0;
#X connect 3 0 4 0;
#X connect 4 0 5 0;
#X restore 20 75 pd mtor;
#X obj 20 98 s r1;
#X floatatom 78 52 5 0 0 0 - - -, f 5;
#N canvas 735 1176 100 159 mtor 0;
#X obj 15 10 inlet;
#X obj 15 33 * 100;
#X obj 15 56 / 127;
#X obj 15 79 - 40;
#X floatatom 15 102 5 0 0 0 - - -, f 5;
#X obj 15 124 outlet;
#X connect 0 0 1 0;
#X connect 1 0 2 0;
#X connect 2 0 3 0;
#X connect 3 0 4 0;
#X connect 4 0 5 0;
#X restore 78 74 pd mtor;
#X floatatom 135 52 5 0 0 0 - - -, f 5;
#N canvas 735 1176 100 159 mtor 0;
#X obj 15 10 inlet;
#X obj 15 33 * 100;
#X obj 15 56 / 127;
#X obj 15 79 - 40;
#X floatatom 15 102 5 0 0 0 - - -, f 5;
#X obj 15 124 outlet;
#X connect 0 0 1 0;
#X connect 1 0 2 0;
#X connect 2 0 3 0;
#X connect 3 0 4 0;
#X connect 4 0 5 0;
#X restore 135 74 pd mtor;
#X floatatom 193 51 5 0 0 0 - - -, f 5;
#N canvas 735 1176 100 159 mtor 0;
#X obj 15 10 inlet;
#X obj 15 33 * 100;
#X obj 15 56 / 127;
#X obj 15 79 - 40;
#X floatatom 15 102 5 0 0 0 - - -, f 5;
#X obj 15 124 outlet;
#X connect 0 0 1 0;
#X connect 1 0 2 0;
#X connect 2 0 3 0;
#X connect 3 0 4 0;
#X connect 4 0 5 0;
#X restore 193 73 pd mtor;
#X obj 193 96 s r4;
#X floatatom 246 50 5 0 0 0 - - -, f 5;
#N canvas 735 1176 100 159 mtor 0;
#X obj 15 10 inlet;
#X obj 15 33 * 100;
#X obj 15 56 / 127;
#X obj 15 79 - 40;
#X floatatom 15 102 5 0 0 0 - - -, f 5;
#X obj 15 124 outlet;
#X connect 0 0 1 0;
#X connect 1 0 2 0;
#X connect 2 0 3 0;
#X connect 3 0 4 0;
#X connect 4 0 5 0;
#X restore 246 72 pd mtor;
#X floatatom 304 49 5 0 0 0 - - -, f 5;
#N canvas 735 1176 100 159 mtor 0;
#X obj 15 10 inlet;
#X obj 15 33 * 100;
#X obj 15 56 / 127;
#X obj 15 79 - 40;
#X floatatom 15 102 5 0 0 0 - - -, f 5;
#X obj 15 124 outlet;
#X connect 0 0 1 0;
#X connect 1 0 2 0;
#X connect 2 0 3 0;
#X connect 3 0 4 0;
#X connect 4 0 5 0;
#X restore 304 71 pd mtor;
#X obj 304 25 ctlin 5;
#X floatatom 357 48 5 0 0 0 - - -, f 5;
#N canvas 735 1176 100 159 mtor 0;
#X obj 15 10 inlet;
#X obj 15 33 * 100;
#X obj 15 56 / 127;
#X obj 15 79 - 40;
#X floatatom 15 102 5 0 0 0 - - -, f 5;
#X obj 15 124 outlet;
#X connect 0 0 1 0;
#X connect 1 0 2 0;
#X connect 2 0 3 0;
#X connect 3 0 4 0;
#X connect 4 0 5 0;
#X restore 357 70 pd mtor;
#X floatatom 415 47 5 0 0 0 - - -, f 5;
#N canvas 735 1176 100 159 mtor 0;
#X obj 15 10 inlet;
#X obj 15 33 * 100;
#X obj 15 56 / 127;
#X obj 15 79 - 40;
#X floatatom 15 102 5 0 0 0 - - -, f 5;
#X obj 15 124 outlet;
#X connect 0 0 1 0;
#X connect 1 0 2 0;
#X connect 2 0 3 0;
#X connect 3 0 4 0;
#X connect 4 0 5 0;
#X restore 415 69 pd mtor;
#X obj 357 93 s r7;
#X obj 415 92 s r8;
#X floatatom 472 46 5 0 0 0 - - -, f 5;
#N canvas 735 1176 100 159 mtor 0;
#X obj 15 10 inlet;
#X obj 15 33 * 100;
#X obj 15 56 / 127;
#X obj 15 79 - 40;
#X floatatom 15 102 5 0 0 0 - - -, f 5;
#X obj 15 124 outlet;
#X connect 0 0 1 0;
#X connect 1 0 2 0;
#X connect 2 0 3 0;
#X connect 3 0 4 0;
#X connect 4 0 5 0;
#X restore 472 68 pd mtor;
#X obj 472 91 s r9;
#X obj 30 226 ctlin;
#X obj 24 266 sel 32 48 64 33 49 65;
#X msg 24 294 0;
#X msg 44 318 1;
#X msg 65 342 2;
#X msg 85 294 3;
#X msg 106 318 4;
#X msg 126 341 5;
#X obj 24 384 s tastireg;
#X text 22 9 Tubos;
#X text 27 208 Presets registros;
#X obj 228 220 ctlin;
#X msg 222 288 0;
#X msg 242 312 1;
#X msg 263 336 2;
#X msg 283 288 3;
#X msg 304 312 4;
#X msg 324 335 5;
#X text 226 202 Presets tubos;
#X obj 222 378 s tasti;
#X obj 222 260 sel 34 50 66 35 51 67;
#X obj 21 144 ctlin 16;
#X obj 78 97 s r2;
#X obj 135 97 s r3;
#X obj 246 95 s r5;
#X obj 304 94 s r6;
#X obj 20 29 ctlin 0;
#X obj 78 28 ctlin 1;
#X obj 135 28 ctlin 2;
#X obj 193 27 ctlin 3;
#X obj 246 26 ctlin 4;
#X obj 357 24 ctlin 6;
#X obj 416 23 ctlin 7;
#X obj 472 22 ctlin 23;
#X text 106 126 Reverb;
#X obj 104 144 ctlin 17;
#X obj 163 143 ctlin 18;
#X obj 239 143 ctlin 19;
#X obj 298 142 ctlin 20;
#X obj 104 167 s r_room;
#X obj 163 166 s r_damping;
#X obj 239 166 s r_wet;
#X obj 298 165 s r_dry;
#X text 371 125 Temperaments;
#X obj 376 142 ctlin 21;
#X obj 376 188 / 127;
#X obj 376 211 s r_temp-sel;
#X obj 461 187 / 127;
#X obj 461 141 ctlin 22;
#X obj 461 164 * 11;
#X obj 461 210 s r_root;
#X text 22 126 LFO;
#X obj 21 167 s r_lfo;
#X obj 376 165 * 8;
#X connect 0 0 1 0;
#X connect 1 0 2 0;
#X connect 3 0 4 0;
#X connect 4 0 46 0;
#X connect 5 0 6 0;
#X connect 6 0 47 0;
#X connect 7 0 8 0;
#X connect 8 0 9 0;
#X connect 10 0 11 0;
#X connect 11 0 48 0;
#X connect 12 0 13 0;
#X connect 13 0 49 0;
#X connect 14 0 12 0;
#X connect 15 0 16 0;
#X connect 16 0 19 0;
#X connect 17 0 18 0;
#X connect 18 0 20 0;
#X connect 21 0 22 0;
#X connect 22 0 23 0;
#X connect 24 1 25 0;
#X connect 25 0 26 0;
#X connect 25 1 27 0;
#X connect 25 2 28 0;
#X connect 25 3 29 0;
#X connect 25 4 30 0;
#X connect 25 5 31 0;
#X connect 26 0 32 0;
#X connect 27 0 32 0;
#X connect 28 0 32 0;
#X connect 29 0 32 0;
#X connect 30 0 32 0;
#X connect 31 0 32 0;
#X connect 35 1 44 0;
#X connect 36 0 43 0;
#X connect 37 0 43 0;
#X connect 38 0 43 0;
#X connect 39 0 43 0;
#X connect 40 0 43 0;
#X connect 41 0 43 0;
#X connect 44 0 36 0;
#X connect 44 1 37 0;
#X connect 44 2 38 0;
#X connect 44 3 39 0;
#X connect 44 4 40 0;
#X connect 44 5 41 0;
#X connect 45 0 76 0;
#X connect 50 0 0 0;
#X connect 51 0 3 0;
#X connect 52 0 5 0;
#X connect 53 0 7 0;
#X connect 54 0 10 0;
#X connect 55 0 15 0;
#X connect 56 0 17 0;
#X connect 57 0 21 0;
#X connect 59 0 63 0;
#X connect 60 0 64 0;
#X connect 61 0 65 0;
#X connect 62 0 66 0;
#X connect 68 0 77 0;
#X connect 69 0 70 0;
#X connect 71 0 74 0;
#X connect 72 0 73 0;
#X connect 73 0 71 0;
#X connect 77 0 69 0;
#X restore 288 822 pd MIDI shortcuts;
#X text 152 121 Nicola Simoni;
#X text 210 10 Project: Tempered Pipe Organ Emulation with Pure Data
;
#X text 262 40 & Pablo Herrera (notacontranota@gmail.com);
#X msg 160 740 \; pd dsp 1 \; r_diapasel 0 \; r_temp-sel 2 \; r_root
0 \; r_reverb_on 0 \; r_vol 127 \; r_room 90 \; r_damping 20 \; r_wet
90 \; r_dry 110;
#X connect 0 0 9 0;
#X connect 0 1 8 1;
#X connect 1 0 7 0;
#X connect 1 1 7 1;
#X connect 3 0 1 0;
#X connect 7 0 6 0;
#X connect 7 1 6 1;
#X connect 8 0 3 0;
#X connect 9 0 8 0;
#X connect 11 0 16 0;
#X connect 16 0 22 0;
#X coords 0 -1 1 1 176 50 2 100 100;
