#N canvas 471 42 725 625 12;
#X obj 531 11 cnv 15 180 54 empty empty empty 20 12 0 14 #000000 #404040
0;
#X obj 533 13 pipe_organ-main;
#X obj 167 375 cnv 15 544 238 empty empty empty 20 12 0 14 #000000
#404040 0;
#X obj 8 375 cnv 15 148 238 empty empty empty 20 12 0 14 #000000 #404040
0;
#X obj 531 301 cnv 15 180 64 empty empty empty 20 12 0 14 #000000 #404040
0;
#X obj 531 73 cnv 15 180 220 empty empty empty 20 12 0 14 #000000 #404040
0;
#X obj 301 12 cnv 15 218 354 empty empty empty 20 12 0 14 #000000 #404040
0;
#X obj 303 14 cnv 15 214 350 empty empty Registros 20 12 0 18 #90714c
#000000 0;
#X obj 8 12 cnv 15 282 354 empty empty empty 20 12 0 14 #000000 #404040
0;
#X obj 309 340 hradio 15 0 0 6 presetsreg tastireg presets_registers
0 -8 0 10 #fcfcfc #90714c #000000 0;
#X obj 422 340 hradio 15 0 0 6 presets tasti presets 0 -8 0 10 #fcfcfc
#90714c #000000 0;
#X obj 10 14 cnv 15 278 350 empty empty Afinador 20 12 0 18 #90714c
#000000 0;
#X floatatom 230 79 5 400 460 0 Diapasón: r_diapason s_diapason,
f 5;
#X obj 29 134 vradio 15 0 1 9 s_temp-sel r_temp-sel Temperamento: 0
-20 0 10 #fcfcfc #90714c #000000 4;
#X text 49 163 Aaron 1/4 comma;
#X text 49 208 Kirnberger III;
#X text 49 178 Salinas 1/3 comma;
#X text 49 223 Wercmeister III;
#X text 49 238 Vallotti;
#X obj 320 60 tgl 15 1 s_principale16 r_principale16 principale_16'
0 -10 0 10 #fcfcfc #000000 #000000 0 1;
#X obj 430 100 tgl 15 1 s_corno r_corno corno_inglese 0 -10 0 10 #fcfcfc
#000000 #000000 0 1;
#X obj 320 100 tgl 15 1 s_fagotto16 r_fagotto16 fagotto_16' 0 -10 0
10 #fcfcfc #000000 #000000 0 1;
#X obj 430 60 tgl 15 1 s_principale8 r_principale8 principale_8' 0
-10 0 10 #fcfcfc #000000 #000000 0 1;
#X obj 430 220 tgl 15 1 s_ottava4 r_ottava4 ottava_4' 0 -10 0 10 #fcfcfc
#000000 #000000 0 1;
#X obj 430 140 tgl 15 1 s_tromba8 r_tromba8 tromba_8' 0 -10 0 10 #fcfcfc
#000000 #000000 0 1;
#X obj 320 260 tgl 15 1 s_violabassi4 r_violabassi4 viola_bassa_4'
0 -10 0 10 #fcfcfc #000000 #000000 1 1;
#X obj 430 180 tgl 15 1 s_flauto4 r_flauto4 flauto_4' 0 -10 0 10 #fcfcfc
#000000 #000000 0 1;
#X obj 320 300 tgl 15 1 s_ottavino r_ottavino ottavino 0 -10 0 10 #fcfcfc
#000000 #000000 0 1;
#X obj 430 260 tgl 15 1 s_duodecima r_duodecima duodecima 0 -10 0 10
#fcfcfc #000000 #000000 0 1;
#X obj 320 180 tgl 15 1 s_cornetto r_cornetto cornetto 0 -10 0 10 #fcfcfc
#000000 #000000 1 1;
#X obj 320 220 tgl 15 1 s_voce r_voce voce 0 -10 0 10 #fcfcfc #000000
#000000 0 1;
#X obj 320 140 tgl 15 1 s_tromboni r_tromboni tromboni 0 -10 0 10 #fcfcfc
#000000 #000000 0 1;
#X obj 10 377 cnv 15 144 234 empty empty Volumen 20 12 0 18 #90714c
#000000 0;
#X obj 60 438 vsl 40 128 0 127 0 1 s_vol_usu r_vol empty 0 -9 0 10
#fcfcfc #000000 #000000 12700 1;
#X obj 169 377 cnv 15 540 234 empty empty Consola 20 12 0 18 #90714c
#000000 0;
#X obj 189 440 vsl 20 126 -40 60 0 1 s1_user r1 16' 0 -9 0 10 #fcfcfc
#000000 #000000 0 1;
#X obj 249 440 vsl 20 126 -40 60 0 1 s2_user r2 16'\ 1/3 0 -9 0 10
#fcfcfc #000000 #000000 0 1;
#X obj 309 440 vsl 20 126 -40 60 0 1 s3_user r3 8' 0 -9 0 10 #fcfcfc
#000000 #000000 10000 1;
#X obj 369 440 vsl 20 126 -40 60 0 1 s4_user r4 4' 0 -9 0 10 #fcfcfc
#000000 #000000 7501 1;
#X obj 429 440 vsl 20 126 -40 60 0 1 s5_user r5 2'\ 2/3 0 -9 0 10 #fcfcfc
#000000 #000000 7505 1;
#X obj 489 440 vsl 20 126 -40 60 0 1 s6_user r6 2' 0 -9 0 10 #fcfcfc
#000000 #000000 5000 1;
#X obj 549 440 vsl 20 126 -40 60 0 1 s7_user r7 1'\ 3/5 0 -9 0 10 #fcfcfc
#000000 #000000 5005 1;
#X obj 609 440 vsl 20 126 -40 60 0 1 s8_user r8 1'\ 1/3 0 -9 0 10 #fcfcfc
#000000 #000000 3750 1;
#X obj 669 440 vsl 20 126 -40 60 0 1 s9_user r9 1' 0 -9 0 10 #fcfcfc
#000000 #000000 2500 1;
#X obj 533 303 cnv 15 176 60 empty empty Trémolo 20 12 0 18 #90714c
#000000 0;
#X obj 554 339 hsl 128 15 0 127 0 1 s_lfo_user r_lfo empty -2 -8 0
10 #fcfcfc #000000 #000000 0 1;
#X obj 533 75 cnv 15 176 216 empty empty Reverberancia 20 12 0 18 #90714c
#000000 0;
#X obj 553 141 hsl 128 15 0 127 0 1 s_room_user r_room Tamaño\ de\ sala
-2 -8 0 10 #fcfcfc #000000 #000000 8000 1;
#X obj 553 181 hsl 128 15 0 127 0 1 s_damping_user r_damping Atenuación
-2 -8 0 10 #fcfcfc #000000 #000000 2000 1;
#X obj 553 221 hsl 128 15 0 127 0 1 s_wet_user r_wet Húmedo -2 -8
0 10 #fcfcfc #000000 #000000 8000 1;
#X obj 553 261 hsl 128 15 0 127 0 1 s_dry_user r_dry Seco -2 -8 0 10
#fcfcfc #000000 #000000 11000 1;
#X obj 671 106 tgl 15 1 s_reverb_on r_reverb_on apagada -45 6 0 10
#fcfcfc #000000 #000000 0 1;
#X obj 222 61 hradio 15 0 1 3 s_diapasel r_diapasel \ |415|432|440|:
-87 7 0 10 #fcfcfc #90714c #000000 2;
#X obj 665 393 bng 25 250 50 0 s_panic r_panic botón\ pánico -75
9 0 10 #ffffff #ff9300 #000000;
#X obj 24 320 hradio 17 0 1 12 s_root r_root Fundamental: 0 -27 0 10
#fcfcfc #90714c #000000 0;
#X text 49 132 Afinación justa;
#X text 49 148 Afinación pitagórica;
#X text 49 193 Temperamento igual;
#X text 26 334 Do;
#X text 38 303 Do#;
#X text 57 334 Re;
#X text 92 334 Mi;
#X text 109 334 Fa;
#X text 124 303 Fa#;
#X text 138 334 Sol;
#X text 156 303 Sol#;
#X text 74 303 Mib;
#X text 176 334 La;
#X text 192 303 Sib;
#X text 210 334 Si;
#X floatatom 240 583 5 -40 60 0 - s2_user -, f 5;
#X floatatom 300 583 5 0 0 0 - s3_user -, f 5;
#X floatatom 360 583 5 -40 60 0 - s4_user -, f 5;
#X floatatom 420 583 5 -40 60 0 - s5_user -, f 5;
#X floatatom 480 583 5 -40 60 0 - s6_user -, f 5;
#X floatatom 540 583 5 -40 60 0 - s7_user -, f 5;
#X floatatom 600 583 5 -40 60 0 - s8_user -, f 5;
#X floatatom 660 583 5 -40 60 0 - s9_user -, f 5;
#X floatatom 180 583 5 -40 60 0 - s1_user -, f 5;
#X text 49 254 Escala espectral;
