#N canvas 259 36 725 610 12;
#X obj 531 11 cnv 15 180 54 empty empty empty 20 12 0 14 #ff9300 #404040
0;
#X obj 533 13 pipe_organ-main;
#X obj 167 382 cnv 15 544 208 empty empty empty 20 12 0 14 #ff9300
#404040 0;
#X obj 8 382 cnv 15 112 208 empty empty empty 20 12 0 14 #ff9300 #404040
0;
#X obj 531 301 cnv 15 180 64 empty empty empty 20 12 0 14 #ff9300 #404040
0;
#X obj 531 72 cnv 15 180 220 empty empty empty 20 12 0 14 #ff9300 #404040
0;
#X obj 301 12 cnv 15 218 354 empty empty empty 20 12 0 14 #ff9300 #404040
0;
#X obj 303 14 cnv 15 214 350 empty empty Registros 20 12 0 18 #ffd479
#ff9300 0;
#X obj 8 12 cnv 15 282 354 empty empty empty 20 12 0 14 #ff9300 #404040
0;
#X obj 309 340 hradio 15 1 0 6 presetsreg tastireg presets_registers
0 -8 0 10 #fcfcfc #000000 #000000 0;
#X obj 422 340 hradio 15 1 0 6 presets tasti presets 0 -8 0 10 #fcfcfc
#000000 #000000 0;
#X obj 10 14 cnv 15 278 350 empty empty Afinador 20 12 0 18 #ffd479
#ff9300 0;
#X floatatom 230 79 5 400 460 0 Diapasón: r_diapason s_diapason,
f 5;
#X obj 29 134 vradio 15 0 0 9 s_temp-sel r_temp-sel empty 0 -8 0 10
#fcfcfc #000000 #000000 2;
#X text 49 163 Aaron 1/4 comma;
#X text 49 208 Kirnberger III;
#X text 49 178 Salinas 1/3 comma;
#X text 49 223 Wercmeister III;
#X text 49 238 Vallotti;
#X obj 323 59 tgl 15 1 s_principale16 r_principale16 principale_16'
0 -10 0 10 #fcfcfc #000000 #000000 0 1;
#X obj 323 99 tgl 15 1 s_corno r_corno corno_inglese 0 -10 0 10 #fcfcfc
#000000 #000000 0 1;
#X obj 323 139 tgl 15 1 s_fagotto16 r_fagotto16 fagotto_16' 0 -10 0
10 #fcfcfc #000000 #000000 0 1;
#X obj 323 179 tgl 15 1 s_principale8 r_principale8 principale_8' 0
-10 0 10 #fcfcfc #000000 #000000 0 1;
#X obj 323 219 tgl 15 1 s_ottava4 r_ottava4 ottava_4' 0 -10 0 10 #fcfcfc
#000000 #000000 0 1;
#X obj 323 259 tgl 15 1 s_tromba8 r_tromba8 tromba_8' 0 -10 0 10 #fcfcfc
#000000 #000000 0 1;
#X obj 323 299 tgl 15 1 s_violabassi4 r_violabassi4 viola_bassi_4'
0 -10 0 10 #fcfcfc #000000 #000000 0 1;
#X obj 443 59 tgl 15 1 s_flauto4 r_flauto4 flauto_4' 0 -10 0 10 #fcfcfc
#000000 #000000 0 1;
#X obj 443 99 tgl 15 1 s_ottavino r_ottavino ottavino 0 -10 0 10 #fcfcfc
#000000 #000000 0 1;
#X obj 443 139 tgl 15 1 s_duodecima r_duodecima duodecima 0 -10 0 10
#fcfcfc #000000 #000000 0 1;
#X obj 443 179 tgl 15 1 s_cornetto r_cornetto cornetto 0 -10 0 10 #fcfcfc
#000000 #000000 0 1;
#X obj 443 219 tgl 15 1 s_voce r_voce voce 0 -10 0 10 #fcfcfc #000000
#000000 0 1;
#X obj 443 259 tgl 15 1 s_tromboni r_tromboni tromboni 0 -10 0 10 #fcfcfc
#000000 #000000 0 1;
#X obj 10 384 cnv 15 108 204 empty empty Ganancia 10 12 0 18 #ffd479
#ff9300 0;
#X obj 50 445 vsl 20 128 0 127 0 0 s_vol_usu r_vol empty 0 -9 0 10
#fcfcfc #000000 #000000 12700 1;
#X obj 169 384 cnv 15 540 204 empty empty Consola 20 12 0 18 #ffd479
#ff9300 0;
#X obj 189 447 vsl 20 126 -40 60 0 0 s1_user r1 16' 0 -9 0 10 #fcfcfc
#000000 #000000 0 1;
#X obj 249 447 vsl 20 126 -40 60 0 0 s2_user r2 16'\ 1/3 0 -9 0 10
#fcfcfc #000000 #000000 0 1;
#X obj 309 447 vsl 20 126 -40 60 0 0 s3_user r3 8' 0 -9 0 10 #fcfcfc
#000000 #000000 12500 1;
#X obj 369 447 vsl 20 126 -40 60 0 0 s4_user r4 4' 0 -9 0 10 #fcfcfc
#000000 #000000 7480 1;
#X obj 429 447 vsl 20 126 -40 60 0 0 s5_user r5 2'\ 2/3 0 -9 0 10 #fcfcfc
#000000 #000000 0 1;
#X obj 489 447 vsl 20 126 -40 60 0 0 s6_user r6 2' 0 -9 0 10 #fcfcfc
#000000 #000000 0 1;
#X obj 549 447 vsl 20 126 -40 60 0 0 s7_user r7 1'\ 3/5 0 -9 0 10 #fcfcfc
#000000 #000000 0 1;
#X obj 609 447 vsl 20 126 -40 60 0 0 s8_user r8 1'\ 1/3 0 -9 0 10 #fcfcfc
#000000 #000000 0 1;
#X obj 669 447 vsl 20 126 -40 60 0 0 s9_user r9 1' 0 -9 0 10 #fcfcfc
#000000 #000000 0 1;
#X obj 533 303 cnv 15 176 60 empty empty Trémolo 20 12 0 18 #ffd479
#ff9300 0;
#X obj 554 339 hsl 128 15 0 127 0 0 s_lfo_user r_lfo empty -2 -8 0
10 #fcfcfc #000000 #000000 0 1;
#X obj 533 74 cnv 15 176 216 empty empty Reverb 20 12 0 18 #ffd479
#ff9300 0;
#X obj 553 124 hsl 128 15 0 127 0 0 s_room_user r_room Tamaño\ eñ\ habitación
-2 -8 0 10 #fcfcfc #000000 #000000 8600 1;
#X obj 553 164 hsl 128 15 0 127 0 0 s_damping_user r_damping damping
-2 -8 0 10 #fcfcfc #000000 #000000 1600 1;
#X obj 553 204 hsl 128 15 0 127 0 0 s_wet_user r_wet Húmedo -2 -8
0 10 #fcfcfc #000000 #000000 3700 1;
#X obj 553 244 hsl 128 15 0 127 0 0 s_dry_user r_dry Seco -2 -8 0 10
#fcfcfc #000000 #000000 7600 1;
#X obj 653 84 tgl 15 0 s_reverb_on r_reverb_on off 17 7 0 10 #fcfcfc
#000000 #000000 0 1;
#X obj 222 61 hradio 15 0 0 3 s_diapasel r_diapasel \ |415|432|440|:
-87 7 0 10 #fcfcfc #ff9300 #000000 0;
#X obj 675 390 bng 15 250 50 0 s_panic r_panic botón\ pánico -75
6 0 10 #ffffff #ff9300 #000000;
#X obj 24 320 hradio 21 0 0 12 s_root r_root Fundamental: 0 -27 0 10
#fcfcfc #000000 #000000 0;
#X text 49 132 Afinación justa;
#X text 49 148 Afinación pitagórica;
#X text 49 193 Temperamento igual;
#X text 49 254 Escala espectral;
#X text 26 339 Do;
#X text 44 302 Do#;
#X text 67 339 Re;
#X text 110 339 Mi;
#X text 130 339 Fa;
#X text 148 301 Fa#;
#X text 169 339 Sol;
#X text 188 301 Sol#;
#X text 87 301 Mib;
#X text 214 339 La;
#X text 232 300 Sib;
#X text 257 339 Si;
