#N canvas 8 32 532 922 10;
#X obj 30 140 notein 1;
#X obj 31 480 reverb;
#X obj 30 20 pddp/dsp;
#X obj 31 410 tremolo;
#X obj 290 700 presets;
#X obj 290 670 registri;
#X obj 30 844 dac~;
#X obj 31 652 out;
#X obj 30 200 consolle;
#X text 210 10 Project: Pipe Organ Emulation with Pure Data;
#X obj 30 170 tuner;
#X obj 290 730 temperaments;
#X obj 160 660 loadbang;
#X obj 101 101 cnv 15 174 48 empty empty Tempered\ Pipe\ Organ 7 6
0 14 #ffd479 #ff9300 0;
#X text 141 121 by Nicola Simoni;
#X text 146 133 & Pablo Herrera;
#X text 210 24 Authors: Nicola Simoni (nicola.simoni.89@gmail.com)
;
#X text 262 40 & Pablo Herrera;
#N canvas 735 25 150 165 diapasel 0;
#X obj 20 10 r s_diapasel;
#X obj 20 50 sel 0 1 2;
#X msg 5 90 415;
#X msg 37 90 432;
#X msg 70 90 440;
#X obj 37 130 s r_diapason;
#X connect 0 0 1 0;
#X connect 1 0 2 0;
#X connect 1 1 3 0;
#X connect 1 2 4 0;
#X connect 2 0 5 0;
#X connect 3 0 5 0;
#X connect 4 0 5 0;
#X restore 290 760 pd diapasel;
#N canvas 735 25 450 451 key 0;
#X obj 20 -20 keyname;
#X symbolatom 20 10 10 0 0 0 - - -, f 10;
#X msg 20 59 0;
#X msg 50 60 1;
#X obj 10 120 s r_temp-sel;
#X msg 80 60 2;
#X msg 110 60 3;
#X msg 140 60 4;
#X msg 170 60 5;
#X msg 200 60 6;
#X msg 230 60 7;
#X obj 20 34 sel F1 F2 F3 F4 F5 F6 F7 F8 F9;
#X msg 260 60 8;
#X symbolatom 20 160 10 0 0 0 - - -, f 10;
#X msg 18 233 0;
#X msg 48 234 1;
#X msg 78 234 2;
#X msg 108 234 3;
#X msg 138 233 4;
#X msg 168 233 5;
#X obj 12 281 s tastireg;
#X msg 198 233 0;
#X msg 228 233 1;
#X msg 258 233 2;
#X msg 288 233 3;
#X msg 318 233 4;
#X msg 348 233 5;
#X obj 198 283 s tasti;
#X obj 20 184 sel q w e r t y u i o p [ ], f 64;
#X obj 20 320 sel Escape;
#X msg 20 345 bang;
#X obj 20 370 s r_panic;
#X connect 0 1 1 0;
#X connect 1 0 11 0;
#X connect 2 0 4 0;
#X connect 3 0 4 0;
#X connect 5 0 4 0;
#X connect 6 0 4 0;
#X connect 7 0 4 0;
#X connect 8 0 4 0;
#X connect 9 0 4 0;
#X connect 10 0 4 0;
#X connect 11 0 2 0;
#X connect 11 1 3 0;
#X connect 11 1 4 0;
#X connect 11 2 5 0;
#X connect 11 3 6 0;
#X connect 11 4 7 0;
#X connect 11 5 8 0;
#X connect 11 6 9 0;
#X connect 11 7 10 0;
#X connect 11 8 12 0;
#X connect 11 9 13 0;
#X connect 12 0 4 0;
#X connect 13 0 28 0;
#X connect 14 0 20 0;
#X connect 15 0 20 0;
#X connect 16 0 20 0;
#X connect 17 0 20 0;
#X connect 18 0 20 0;
#X connect 19 0 20 0;
#X connect 21 0 27 0;
#X connect 22 0 27 0;
#X connect 23 0 27 0;
#X connect 24 0 27 0;
#X connect 25 0 27 0;
#X connect 26 0 27 0;
#X connect 28 0 14 0;
#X connect 28 1 15 0;
#X connect 28 2 16 0;
#X connect 28 3 17 0;
#X connect 28 4 18 0;
#X connect 28 5 19 0;
#X connect 28 6 21 0;
#X connect 28 7 22 0;
#X connect 28 8 23 0;
#X connect 28 9 24 0;
#X connect 28 10 25 0;
#X connect 28 11 26 0;
#X connect 28 12 29 0;
#X connect 29 0 30 0;
#X connect 30 0 31 0;
#X restore 289 790 pd key;
#X msg 160 740 \; pd dsp 1 \; r_sommatore 1 \; r_diapasel 0 \; r_temp-sel
5 \; r_reverb_on 0 \; r_vol 127 \; r_room 90 \; r_damping 20 \; r_wet
90 \; r_dry 110 \; r3 60 \; r6 -20;
#X obj 160 700 del 10;
#X connect 0 0 10 0;
#X connect 0 1 8 1;
#X connect 1 0 7 0;
#X connect 1 1 7 1;
#X connect 3 0 1 0;
#X connect 7 0 6 0;
#X connect 7 1 6 1;
#X connect 8 0 3 0;
#X connect 10 0 8 0;
#X connect 12 0 21 0;
#X connect 21 0 20 0;
#X coords 0 -1 1 1 176 50 2 100 100;
