#N canvas 418 963 652 842 12;
#X text 350 190 Equal Tempered;
#X text 450 130 Aaron 1/4 comma;
#X text 520 220 Kirnberger III;
#X obj 20 10 r s_temp-sel;
#X msg 20 70 0 0 3.9 0 -13.7 -2 0 2 0 -15.6 0 -11.7;
#X text 380 100 Pythagorean tuning;
#X text 300 70 Just tuning;
#X text 520 160 Salinas 1/3 comma;
#X text 520 250 Wercmeister III;
#X text 470 280 Vallotti;
#X obj 20 39 sel 0 1 2 3 4 5 6 7 8;
#X msg 148 310 0 4.9 3.9 -2.5 -13.7 -29.4 51.3 2 40.5 9 -31.2 -11.7
;
#X msg 68 160 0 -36.5 -10.4 15.6 -20.9 5.2 -31.3 -5.2 -41.7 -15.6 10.4
-26.1, f 63;
#X msg 133 280 0 -5.9 -3.9 -2 -7.8 2 -7.8 -2 -3.9 -5.9 0 -9.8;
#X text 520 310 Carlos Harmonic;
#X msg 117 250 0 -9.8 -7.8 -5.9 -9.8 -2 -11.7 -3.9 -7.9 -11.7 -3.9
-7.8;
#X msg 36 100 0 13.7 3.9 -5.9 7.8 -2 11.7 2 15.6 5.9 -3.9 9.8;
#X msg 84 190 0 0 0 0 0 0 0 0 0 0 0 0;
#X msg 100 220 0 -7.8 -6.8 -5.9 -13.7 -2 -9.8 -3.4 -5.9 -10.3 -3.9
-11.71;
#X msg 52 130 0 -24 -7 10.3 -13.7 3.4 -20.5 -3.6 -27.4 -10.3 6.8 -17.1
;
#X obj 234 342 r s_root;
#X obj 20 369 demux 0 1 2 3 4 5 6 7 8 9 10 11;
#N canvas 608 1481 369 188 c_root 0;
#X obj 20 79 s r_c;
#X obj 38 113 s r_cs;
#X obj 57 143 s r_d;
#X obj 76 83 s r_ds;
#X obj 95 113 s r_e;
#X obj 114 143 s r_f;
#X obj 132 83 s r_fs;
#X obj 151 113 s r_g;
#X obj 170 143 s r_gs;
#X obj 189 83 s r_a;
#X obj 208 113 s r_as;
#X obj 227 143 s r_b;
#X obj 20 50 unpack \$1 \$2 \$3 \$4 \$5 \$6 \$7 \$8 \$9 \$10 \$11 \$12
;
#X obj 20 10 inlet;
#X connect 12 0 0 0;
#X connect 12 1 1 0;
#X connect 12 2 2 0;
#X connect 12 3 3 0;
#X connect 12 4 4 0;
#X connect 12 5 5 0;
#X connect 12 6 6 0;
#X connect 12 7 7 0;
#X connect 12 8 8 0;
#X connect 12 9 9 0;
#X connect 12 10 10 0;
#X connect 12 11 11 0;
#X connect 13 0 12 0;
#X restore 20 410 pd c_root;
#N canvas 608 1482 369 188 cs_root 0;
#X obj 20 50 unpack \$1 \$2 \$3 \$4 \$5 \$6 \$7 \$8 \$9 \$10 \$11 \$12
;
#X obj 20 10 inlet;
#X obj 300 80 s r_c;
#X obj 40 113 s r_cs;
#X obj 59 143 s r_d;
#X obj 78 83 s r_ds;
#X obj 97 113 s r_e;
#X obj 116 143 s r_f;
#X obj 134 83 s r_fs;
#X obj 153 113 s r_g;
#X obj 172 143 s r_gs;
#X obj 191 83 s r_a;
#X obj 210 113 s r_as;
#X obj 229 143 s r_b;
#X connect 0 0 3 0;
#X connect 0 1 4 0;
#X connect 0 2 5 0;
#X connect 0 3 6 0;
#X connect 0 4 7 0;
#X connect 0 5 8 0;
#X connect 0 6 9 0;
#X connect 0 7 10 0;
#X connect 0 8 11 0;
#X connect 0 9 12 0;
#X connect 0 10 13 0;
#X connect 0 11 2 0;
#X connect 1 0 0 0;
#X restore 40 440 pd cs_root;
#X obj 260 380 bng 14 250 50 0 empty empty empty 17 7 0 10 #fcfcfc
#000000 #000000;
#X obj 260 403 s r_temp-sel;
#N canvas 608 1483 369 188 d_root 0;
#X obj 20 50 unpack \$1 \$2 \$3 \$4 \$5 \$6 \$7 \$8 \$9 \$10 \$11 \$12
;
#X obj 20 10 inlet;
#X obj 220 88 s r_c;
#X obj 240 118 s r_cs;
#X obj 21 150 s r_d;
#X obj 40 90 s r_ds;
#X obj 59 120 s r_e;
#X obj 78 150 s r_f;
#X obj 96 90 s r_fs;
#X obj 115 120 s r_g;
#X obj 134 150 s r_gs;
#X obj 153 90 s r_a;
#X obj 172 120 s r_as;
#X obj 191 150 s r_b;
#X connect 0 0 4 0;
#X connect 0 1 5 0;
#X connect 0 2 6 0;
#X connect 0 3 7 0;
#X connect 0 4 8 0;
#X connect 0 5 9 0;
#X connect 0 6 10 0;
#X connect 0 7 11 0;
#X connect 0 8 12 0;
#X connect 0 9 13 0;
#X connect 0 10 2 0;
#X connect 0 11 3 0;
#X connect 1 0 0 0;
#X restore 57 470 pd d_root;
#N canvas 608 1484 369 188 ds_root 0;
#X obj 20 50 unpack \$1 \$2 \$3 \$4 \$5 \$6 \$7 \$8 \$9 \$10 \$11 \$12
;
#X obj 20 10 inlet;
#X obj 200 88 s r_c;
#X obj 220 118 s r_cs;
#X obj 231 150 s r_d;
#X obj 20 90 s r_ds;
#X obj 39 120 s r_e;
#X obj 58 150 s r_f;
#X obj 76 90 s r_fs;
#X obj 95 120 s r_g;
#X obj 114 150 s r_gs;
#X obj 133 90 s r_a;
#X obj 152 120 s r_as;
#X obj 171 150 s r_b;
#X connect 0 0 5 0;
#X connect 0 1 6 0;
#X connect 0 2 7 0;
#X connect 0 3 8 0;
#X connect 0 4 9 0;
#X connect 0 5 10 0;
#X connect 0 6 11 0;
#X connect 0 7 12 0;
#X connect 0 8 13 0;
#X connect 0 9 2 0;
#X connect 0 10 3 0;
#X connect 0 11 4 0;
#X connect 1 0 0 0;
#X restore 78 500 pd ds_root;
#N canvas 608 1485 369 188 e_root 0;
#X obj 20 50 unpack \$1 \$2 \$3 \$4 \$5 \$6 \$7 \$8 \$9 \$10 \$11 \$12
;
#X obj 20 10 inlet;
#X obj 181 78 s r_c;
#X obj 201 108 s r_cs;
#X obj 212 140 s r_d;
#X obj 257 77 s r_ds;
#X obj 20 110 s r_e;
#X obj 39 140 s r_f;
#X obj 57 80 s r_fs;
#X obj 76 110 s r_g;
#X obj 95 140 s r_gs;
#X obj 114 80 s r_a;
#X obj 133 110 s r_as;
#X obj 152 140 s r_b;
#X connect 0 0 6 0;
#X connect 0 1 7 0;
#X connect 0 2 8 0;
#X connect 0 3 9 0;
#X connect 0 4 10 0;
#X connect 0 5 11 0;
#X connect 0 6 12 0;
#X connect 0 7 13 0;
#X connect 0 8 2 0;
#X connect 0 9 3 0;
#X connect 0 10 4 0;
#X connect 0 11 5 0;
#X connect 1 0 0 0;
#X restore 97 530 pd e_root;
#N canvas 608 1486 369 188 f_root 0;
#X obj 20 50 unpack \$1 \$2 \$3 \$4 \$5 \$6 \$7 \$8 \$9 \$10 \$11 \$12
;
#X obj 20 10 inlet;
#X obj 164 80 s r_c;
#X obj 184 110 s r_cs;
#X obj 195 142 s r_d;
#X obj 240 79 s r_ds;
#X obj 260 110 s r_e;
#X obj 22 142 s r_f;
#X obj 40 82 s r_fs;
#X obj 59 112 s r_g;
#X obj 78 142 s r_gs;
#X obj 97 82 s r_a;
#X obj 116 112 s r_as;
#X obj 135 142 s r_b;
#X connect 0 0 7 0;
#X connect 0 1 8 0;
#X connect 0 2 9 0;
#X connect 0 3 10 0;
#X connect 0 4 11 0;
#X connect 0 5 12 0;
#X connect 0 6 13 0;
#X connect 0 7 2 0;
#X connect 0 8 3 0;
#X connect 0 9 4 0;
#X connect 0 10 5 0;
#X connect 0 11 6 0;
#X connect 1 0 0 0;
#X restore 117 560 pd f_root;
#N canvas 608 1487 369 188 fs_root 0;
#X obj 20 50 unpack \$1 \$2 \$3 \$4 \$5 \$6 \$7 \$8 \$9 \$10 \$11 \$12
;
#X obj 20 10 inlet;
#X obj 144 78 s r_c;
#X obj 164 108 s r_cs;
#X obj 175 140 s r_d;
#X obj 220 77 s r_ds;
#X obj 240 108 s r_e;
#X obj 252 140 s r_f;
#X obj 20 80 s r_fs;
#X obj 39 110 s r_g;
#X obj 58 140 s r_gs;
#X obj 77 80 s r_a;
#X obj 96 110 s r_as;
#X obj 115 140 s r_b;
#X connect 0 0 8 0;
#X connect 0 1 9 0;
#X connect 0 2 10 0;
#X connect 0 3 11 0;
#X connect 0 4 12 0;
#X connect 0 5 13 0;
#X connect 0 6 2 0;
#X connect 0 7 3 0;
#X connect 0 8 4 0;
#X connect 0 9 5 0;
#X connect 0 10 6 0;
#X connect 0 11 7 0;
#X connect 1 0 0 0;
#X restore 136 590 pd fs_root;
#N canvas 608 1489 369 188 g_root 0;
#X obj 20 50 unpack \$1 \$2 \$3 \$4 \$5 \$6 \$7 \$8 \$9 \$10 \$11 \$12
;
#X obj 20 10 inlet;
#X obj 126 80 s r_c;
#X obj 146 110 s r_cs;
#X obj 157 142 s r_d;
#X obj 202 79 s r_ds;
#X obj 222 110 s r_e;
#X obj 234 142 s r_f;
#X obj 280 80 s r_fs;
#X obj 21 112 s r_g;
#X obj 40 142 s r_gs;
#X obj 59 82 s r_a;
#X obj 78 112 s r_as;
#X obj 97 142 s r_b;
#X connect 0 0 9 0;
#X connect 0 1 10 0;
#X connect 0 2 11 0;
#X connect 0 3 12 0;
#X connect 0 4 13 0;
#X connect 0 5 2 0;
#X connect 0 6 3 0;
#X connect 0 7 4 0;
#X connect 0 8 5 0;
#X connect 0 9 6 0;
#X connect 0 10 7 0;
#X connect 0 11 8 0;
#X connect 1 0 0 0;
#X restore 160 620 pd g_root;
#N canvas 608 1489 369 188 gs_root 0;
#X obj 20 50 unpack \$1 \$2 \$3 \$4 \$5 \$6 \$7 \$8 \$9 \$10 \$11 \$12
;
#X obj 20 10 inlet;
#X obj 107 80 s r_c;
#X obj 127 110 s r_cs;
#X obj 138 142 s r_d;
#X obj 183 79 s r_ds;
#X obj 203 110 s r_e;
#X obj 215 142 s r_f;
#X obj 261 80 s r_fs;
#X obj 270 110 s r_g;
#X obj 21 142 s r_gs;
#X obj 40 82 s r_a;
#X obj 59 112 s r_as;
#X obj 78 142 s r_b;
#X connect 0 0 10 0;
#X connect 0 1 11 0;
#X connect 0 2 12 0;
#X connect 0 3 13 0;
#X connect 0 4 2 0;
#X connect 0 5 3 0;
#X connect 0 6 4 0;
#X connect 0 7 5 0;
#X connect 0 8 6 0;
#X connect 0 9 7 0;
#X connect 0 10 8 0;
#X connect 0 11 9 0;
#X connect 1 0 0 0;
#X restore 175 650 pd gs_root;
#N canvas 608 1490 369 188 a_root 0;
#X obj 20 50 unpack \$1 \$2 \$3 \$4 \$5 \$6 \$7 \$8 \$9 \$10 \$11 \$12
;
#X obj 20 10 inlet;
#X obj 86 78 s r_c;
#X obj 106 108 s r_cs;
#X obj 117 140 s r_d;
#X obj 162 77 s r_ds;
#X obj 182 108 s r_e;
#X obj 194 140 s r_f;
#X obj 240 78 s r_fs;
#X obj 249 108 s r_g;
#X obj 260 140 s r_gs;
#X obj 19 80 s r_a;
#X obj 38 110 s r_as;
#X obj 57 140 s r_b;
#X connect 0 0 11 0;
#X connect 0 1 12 0;
#X connect 0 2 13 0;
#X connect 0 3 2 0;
#X connect 0 4 3 0;
#X connect 0 5 4 0;
#X connect 0 6 5 0;
#X connect 0 7 6 0;
#X connect 0 8 7 0;
#X connect 0 9 8 0;
#X connect 0 10 9 0;
#X connect 0 11 10 0;
#X connect 1 0 0 0;
#X restore 195 680 pd a_root;
#N canvas 608 1491 369 188 as_root 0;
#X obj 20 50 unpack \$1 \$2 \$3 \$4 \$5 \$6 \$7 \$8 \$9 \$10 \$11 \$12
;
#X obj 20 10 inlet;
#X obj 69 80 s r_c;
#X obj 89 110 s r_cs;
#X obj 100 142 s r_d;
#X obj 145 79 s r_ds;
#X obj 165 110 s r_e;
#X obj 177 142 s r_f;
#X obj 223 80 s r_fs;
#X obj 232 110 s r_g;
#X obj 243 142 s r_gs;
#X obj 290 80 s r_a;
#X obj 21 112 s r_as;
#X obj 40 142 s r_b;
#X connect 0 0 12 0;
#X connect 0 1 13 0;
#X connect 0 2 2 0;
#X connect 0 3 3 0;
#X connect 0 4 4 0;
#X connect 0 5 5 0;
#X connect 0 6 6 0;
#X connect 0 7 7 0;
#X connect 0 8 8 0;
#X connect 0 9 9 0;
#X connect 0 10 10 0;
#X connect 0 11 11 0;
#X connect 1 0 0 0;
#X restore 214 710 pd as_root;
#N canvas 608 1492 369 188 b_root 0;
#X obj 20 50 unpack \$1 \$2 \$3 \$4 \$5 \$6 \$7 \$8 \$9 \$10 \$11 \$12
;
#X obj 20 10 inlet;
#X obj 52 80 s r_c;
#X obj 72 110 s r_cs;
#X obj 83 142 s r_d;
#X obj 128 79 s r_ds;
#X obj 148 110 s r_e;
#X obj 160 142 s r_f;
#X obj 206 80 s r_fs;
#X obj 215 110 s r_g;
#X obj 226 142 s r_gs;
#X obj 273 80 s r_a;
#X obj 280 110 s r_as;
#X obj 23 142 s r_b;
#X connect 0 0 13 0;
#X connect 0 1 2 0;
#X connect 0 2 3 0;
#X connect 0 3 4 0;
#X connect 0 4 5 0;
#X connect 0 5 6 0;
#X connect 0 6 7 0;
#X connect 0 7 8 0;
#X connect 0 8 9 0;
#X connect 0 9 10 0;
#X connect 0 10 11 0;
#X connect 0 11 12 0;
#X connect 1 0 0 0;
#X restore 234 740 pd b_root;
#X connect 3 0 10 0;
#X connect 4 0 21 0;
#X connect 10 0 4 0;
#X connect 10 1 16 0;
#X connect 10 2 19 0;
#X connect 10 3 12 0;
#X connect 10 4 17 0;
#X connect 10 5 18 0;
#X connect 10 6 15 0;
#X connect 10 7 13 0;
#X connect 10 8 11 0;
#X connect 11 0 21 0;
#X connect 12 0 21 0;
#X connect 13 0 21 0;
#X connect 15 0 21 0;
#X connect 16 0 21 0;
#X connect 17 0 21 0;
#X connect 18 0 21 0;
#X connect 19 0 21 0;
#X connect 20 0 21 1;
#X connect 20 0 24 0;
#X connect 21 0 22 0;
#X connect 21 1 23 0;
#X connect 21 2 26 0;
#X connect 21 3 27 0;
#X connect 21 4 28 0;
#X connect 21 5 29 0;
#X connect 21 6 30 0;
#X connect 21 7 31 0;
#X connect 21 8 32 0;
#X connect 21 9 33 0;
#X connect 21 10 34 0;
#X connect 21 11 35 0;
#X connect 24 0 25 0;
