#N canvas 428 970 652 772 12;
#X text 350 190 Equal Tempered;
#X text 450 130 Aaron 1/4 comma;
#X text 520 220 Kirnberger III;
#X obj 20 10 r s_temp-sel;
#X msg 20 70 0 0 3.9 0 -13.7 -2 0 2 0 -15.6 0 -11.7;
#X text 380 100 Pythagorean tuning;
#X text 300 70 Just tuning;
#X text 520 160 Salinas 1/3 comma;
#X text 520 250 Wercmeister III;
#X text 470 280 Vallotti;
#X obj 20 39 sel 0 1 2 3 4 5 6 7 8;
#X msg 148 310 0 4.9 3.9 -2.5 -13.7 -29.4 51.3 2 40.5 9 -31.2 -11.7
;
#X msg 68 160 0 -36.5 -10.4 15.6 -20.9 5.2 -31.3 -5.2 -41.7 -15.6 10.4
-26.1, f 63;
#X msg 133 280 0 -5.9 -3.9 -2 -7.8 2 -7.8 -2 -3.9 -5.9 0 -9.8;
#X text 520 310 Carlos Harmonic;
#X msg 117 250 0 -9.8 -7.8 -5.9 -9.8 -2 -11.7 -3.9 -7.9 -11.7 -3.9
-7.8;
#X msg 36 100 0 13.7 3.9 -5.9 7.8 -2 11.7 2 15.6 5.9 -3.9 9.8;
#X msg 84 190 0 0 0 0 0 0 0 0 0 0 0 0;
#X msg 100 220 0 -7.8 -6.8 -5.9 -13.7 -2 -9.8 -3.4 -5.9 -10.3 -3.9
-11.71;
#X msg 52 130 0 -24 -7 10.3 -13.7 3.4 -20.5 -3.6 -27.4 -10.3 6.8 -17.1
;
#X obj 160 340 r s_root;
#X obj 192 431 s r_temp-sel;
#X obj 160 399 t f b;
#X obj 50 460 unpack f f f f f f f f f f f f;
#X obj 32 638 s r_c;
#X obj 50 672 s r_cs;
#X obj 69 702 s r_d;
#X obj 88 642 s r_ds;
#X obj 107 672 s r_e;
#X obj 126 702 s r_f;
#X obj 144 642 s r_fs;
#X obj 163 672 s r_g;
#X obj 182 702 s r_gs;
#X obj 201 642 s r_a;
#X obj 220 672 s r_as;
#X obj 239 702 s r_b;
#X obj 30 490 pack f f f f f f f f f f f f f, f 33;
#X obj 30 520 route 0 1 2 3 4 5 6 7 8 9 10 11;
#X obj 30 600 unpack f f f f f f f f f f f f;
#N canvas 630 1103 525 504 roots 0;
#X obj 30 10 inlet;
#X obj 30 450 outlet;
#X msg 33 62 \$1 \$2 \$3 \$4 \$5 \$6 \$7 \$8 \$9 \$10 \$11 \$12;
#X msg 53 92 \$12 \$1 \$2 \$3 \$4 \$5 \$6 \$7 \$8 \$9 \$10 \$11;
#X obj 70 30 inlet;
#X msg 70 120 \$11 \$12 \$1 \$2 \$3 \$4 \$5 \$6 \$7 \$8 \$9 \$10;
#X obj 110 10 inlet;
#X msg 80 150 \$10 \$11 \$12 \$1 \$2 \$3 \$4 \$5 \$6 \$7 \$8 \$9;
#X obj 150 30 inlet;
#X msg 90 180 \$9 \$10 \$11 \$12 \$1 \$2 \$3 \$4 \$5 \$6 \$7 \$8;
#X obj 190 10 inlet;
#X obj 230 30 inlet;
#X msg 100 210 \$8 \$9 \$10 \$11 \$12 \$1 \$2 \$3 \$4 \$5 \$6 \$7;
#X obj 270 10 inlet;
#X msg 110 240 \$7 \$8 \$9 \$10 \$11 \$12 \$1 \$2 \$3 \$4 \$5 \$6;
#X obj 310 30 inlet;
#X msg 120 270 \$6 \$7 \$8 \$9 \$10 \$11 \$12 \$1 \$2 \$3 \$4 \$5;
#X obj 350 10 inlet;
#X msg 130 300 \$5 \$6 \$7 \$8 \$9 \$10 \$11 \$12 \$1 \$2 \$3 \$4;
#X obj 390 30 inlet;
#X msg 140 330 \$4 \$5 \$6 \$7 \$8 \$9 \$10 \$11 \$12 \$1 \$2 \$3;
#X msg 150 360 \$3 \$4 \$5 \$6 \$7 \$8 \$9 \$10 \$11 \$12 \$1 \$2;
#X obj 430 10 inlet;
#X obj 470 30 inlet;
#X msg 160 390 \$2 \$3 \$4 \$5 \$6 \$7 \$8 \$9 \$10 \$11 \$12 \$1;
#X connect 0 0 2 0;
#X connect 2 0 1 0;
#X connect 3 0 1 0;
#X connect 4 0 3 0;
#X connect 5 0 1 0;
#X connect 6 0 5 0;
#X connect 7 0 1 0;
#X connect 8 0 7 0;
#X connect 9 0 1 0;
#X connect 10 0 9 0;
#X connect 11 0 12 0;
#X connect 12 0 1 0;
#X connect 13 0 14 0;
#X connect 14 0 1 0;
#X connect 15 0 16 0;
#X connect 16 0 1 0;
#X connect 17 0 18 0;
#X connect 18 0 1 0;
#X connect 19 0 20 0;
#X connect 20 0 1 0;
#X connect 21 0 1 0;
#X connect 22 0 21 0;
#X connect 23 0 24 0;
#X connect 24 0 1 0;
#X restore 30 560 pd roots;
#X floatatom 160 370 5 0 0 0 - - -, f 5;
#X obj 250 20 bng 15 250 50 0 empty empty empty 17 7 0 10 #fcfcfc #000000
#000000;
#X connect 3 0 10 0;
#X connect 3 0 41 0;
#X connect 4 0 23 0;
#X connect 10 0 4 0;
#X connect 10 1 16 0;
#X connect 10 2 19 0;
#X connect 10 3 12 0;
#X connect 10 4 17 0;
#X connect 10 5 18 0;
#X connect 10 6 15 0;
#X connect 10 7 13 0;
#X connect 10 8 11 0;
#X connect 11 0 23 0;
#X connect 12 0 23 0;
#X connect 13 0 23 0;
#X connect 15 0 23 0;
#X connect 16 0 23 0;
#X connect 17 0 23 0;
#X connect 18 0 23 0;
#X connect 19 0 23 0;
#X connect 20 0 40 0;
#X connect 22 0 36 0;
#X connect 22 1 21 0;
#X connect 23 0 36 1;
#X connect 23 1 36 2;
#X connect 23 2 36 3;
#X connect 23 3 36 4;
#X connect 23 4 36 5;
#X connect 23 5 36 6;
#X connect 23 6 36 7;
#X connect 23 7 36 8;
#X connect 23 8 36 9;
#X connect 23 9 36 10;
#X connect 23 10 36 11;
#X connect 23 11 36 12;
#X connect 36 0 37 0;
#X connect 37 0 39 0;
#X connect 37 1 39 1;
#X connect 37 2 39 2;
#X connect 37 3 39 3;
#X connect 37 4 39 4;
#X connect 37 5 39 5;
#X connect 37 6 39 6;
#X connect 37 7 39 7;
#X connect 37 8 39 8;
#X connect 37 9 39 9;
#X connect 37 10 39 10;
#X connect 37 11 39 11;
#X connect 38 0 24 0;
#X connect 38 1 25 0;
#X connect 38 2 26 0;
#X connect 38 3 27 0;
#X connect 38 4 28 0;
#X connect 38 5 29 0;
#X connect 38 6 30 0;
#X connect 38 7 31 0;
#X connect 38 8 32 0;
#X connect 38 9 33 0;
#X connect 38 10 34 0;
#X connect 38 11 35 0;
#X connect 39 0 38 0;
#X connect 40 0 22 0;
#X connect 41 0 40 0;
