#N canvas 735 25 652 546 12;
#X msg 84 190 0 0 0 0 0 0 0 0 0 0 0 0;
#X obj 16 410 unpack 0 0 0 0 0 0 0 0 0 0 0 0;
#X obj 16 439 s r_c;
#X obj 34 473 s r_cs;
#X obj 53 503 s r_d;
#X obj 72 443 s r_ds;
#X obj 91 473 s r_e;
#X obj 110 503 s r_f;
#X obj 128 443 s r_fs;
#X obj 147 473 s r_g;
#X obj 166 503 s r_gs;
#X obj 185 443 s r_a;
#X obj 204 473 s r_as;
#X obj 223 503 s r_b;
#X text 264 188 Equal Tempered;
#X text 330 130 Aaron 1/4 comma;
#X text 380 220 Kirnberger III;
#X obj 20 10 r s_temp-sel;
#X msg 20 70 0 0 3.9 0 -13.7 -2 0 2 0 -15.6 0 -11.7;
#X msg 36 100 0 14 4 -6 8 -2 12 2 16 6 -4 10;
#X text 260 100 Pythagorean tuning;
#X text 300 70 Just tuning;
#X text 520 160 Salinas 1/3 comma;
#X msg 117 250 0 -10 8 -6 -10 -2 -12 -4 -8 -12 -4 -8;
#X text 390 250 Wercmeister III;
#X msg 133 280 0 -5 -4 -2 -8 2 -8 -2 -4 -6 0 -10;
#X text 380 280 Vallotti;
#X obj 20 39 sel 0 1 2 3 4 5 6 7 8;
#X msg 148 310 0 4.9 3.9 -2.5 -13.7 -29.4 51.3 2 40.5 9 -31.2 -11.7
;
#X text 520 310 Spectral;
#X msg 52 130 0 -24 -7 10.3 -13.7 3.4 -20.5 -3.6 -27.4 -10.3 6.8 -7.1
;
#X msg 100 220 0 -8 -7 -6 -14 -2 -10 -3 -6 -10.3 -4 -12;
#X msg 68 160 0 -36.5 -10.4 15.6 -20.9 5.2 -31.3 -5.2 -41.7 -15.6 10.4
-26.1, f 63;
#X connect 0 0 1 0;
#X connect 1 0 2 0;
#X connect 1 1 3 0;
#X connect 1 2 4 0;
#X connect 1 3 5 0;
#X connect 1 4 6 0;
#X connect 1 5 7 0;
#X connect 1 6 8 0;
#X connect 1 7 9 0;
#X connect 1 8 10 0;
#X connect 1 9 11 0;
#X connect 1 10 12 0;
#X connect 1 11 13 0;
#X connect 17 0 27 0;
#X connect 18 0 1 0;
#X connect 19 0 1 0;
#X connect 23 0 1 0;
#X connect 25 0 1 0;
#X connect 27 0 18 0;
#X connect 27 1 19 0;
#X connect 27 2 30 0;
#X connect 27 3 32 0;
#X connect 27 4 0 0;
#X connect 27 5 31 0;
#X connect 27 6 23 0;
#X connect 27 7 25 0;
#X connect 27 8 28 0;
#X connect 28 0 1 0;
#X connect 30 0 1 0;
#X connect 31 0 1 0;
#X connect 32 0 1 0;
