#N canvas 428 1111 652 716 12;
#X text 350 190 Equal Tempered;
#X text 450 130 Aaron 1/4 comma;
#X text 520 220 Kirnberger III;
#X obj 20 10 r s_temp-sel;
#X msg 20 70 0 0 3.9 0 -13.7 -2 0 2 0 -15.6 0 -11.7;
#X text 380 100 Pythagorean tuning;
#X text 300 70 Just tuning;
#X text 520 160 Salinas 1/3 comma;
#X text 520 250 Wercmeister III;
#X text 470 280 Vallotti;
#X obj 20 39 sel 0 1 2 3 4 5 6 7 8;
#X msg 148 310 0 4.9 3.9 -2.5 -13.7 -29.4 51.3 2 40.5 9 -31.2 -11.7
;
#X msg 68 160 0 -36.5 -10.4 15.6 -20.9 5.2 -31.3 -5.2 -41.7 -15.6 10.4
-26.1, f 63;
#X msg 133 280 0 -5.9 -3.9 -2 -7.8 2 -7.8 -2 -3.9 -5.9 0 -9.8;
#X text 520 310 Carlos Harmonic;
#X msg 117 250 0 -9.8 -7.8 -5.9 -9.8 -2 -11.7 -3.9 -7.9 -11.7 -3.9
-7.8;
#X msg 36 100 0 13.7 3.9 -5.9 7.8 -2 11.7 2 15.6 5.9 -3.9 9.8;
#X msg 84 190 0 0 0 0 0 0 0 0 0 0 0 0;
#X msg 100 220 0 -7.8 -6.8 -5.9 -13.7 -2 -9.8 -3.4 -5.9 -10.3 -3.9
-11.71;
#X msg 52 130 0 -24 -7 10.3 -13.7 3.4 -20.5 -3.6 -27.4 -10.3 6.8 -17.1
;
#X obj 20 569 s r_c;
#X obj 38 603 s r_cs;
#X obj 57 633 s r_d;
#X obj 76 573 s r_ds;
#X obj 95 603 s r_e;
#X obj 114 633 s r_f;
#X obj 132 573 s r_fs;
#X obj 151 603 s r_g;
#X obj 170 633 s r_gs;
#X obj 189 573 s r_a;
#X obj 208 603 s r_as;
#X obj 227 633 s r_b;
#X obj 20 540 unpack \$1 \$2 \$3 \$4 \$5 \$6 \$7 \$8 \$9 \$10 \$11
\$12;
#X obj 50 450 print;
#X msg 20 340 \$1 \$2 \$3 \$4 \$5 \$6 \$7 \$8 \$9 \$10 \$11 \$12;
#X obj 50 410 r s_root;
#X connect 3 0 10 0;
#X connect 4 0 34 0;
#X connect 10 0 4 0;
#X connect 10 1 16 0;
#X connect 10 2 19 0;
#X connect 10 3 12 0;
#X connect 10 4 17 0;
#X connect 10 5 18 0;
#X connect 10 6 15 0;
#X connect 10 7 13 0;
#X connect 10 8 11 0;
#X connect 11 0 34 0;
#X connect 12 0 34 0;
#X connect 13 0 34 0;
#X connect 15 0 34 0;
#X connect 16 0 34 0;
#X connect 17 0 34 0;
#X connect 18 0 34 0;
#X connect 19 0 34 0;
#X connect 32 0 20 0;
#X connect 32 1 21 0;
#X connect 32 2 22 0;
#X connect 32 3 23 0;
#X connect 32 4 24 0;
#X connect 32 5 25 0;
#X connect 32 6 26 0;
#X connect 32 7 27 0;
#X connect 32 8 28 0;
#X connect 32 9 29 0;
#X connect 32 10 30 0;
#X connect 32 11 31 0;
#X connect 34 0 32 0;
#X connect 35 0 33 0;
