#N canvas 1116 887 383 384 12;
#X floatatom 60 20 5 -100 100 0 C r_c s_c, f 5;
#X floatatom 60 50 5 -100 100 0 C#/Db r_cs s_cs, f 5;
#X floatatom 60 80 5 -100 100 0 D r_d s_d, f 5;
#X floatatom 60 110 5 -100 100 0 D#/Eb r_ds s_ds, f 5;
#X floatatom 60 140 5 -100 100 0 E r_e s_e, f 5;
#X floatatom 60 170 5 -100 100 0 F r_f s_f, f 5;
#X floatatom 60 200 5 -100 100 0 F#/Gb r_fs s_fs, f 5;
#X floatatom 60 230 5 -100 100 0 G r_g s_g, f 5;
#X floatatom 60 260 5 -100 100 0 G#/Ab r_gs s_gs, f 5;
#X floatatom 60 290 5 -100 100 0 A r_a s_a, f 5;
#X floatatom 60 320 5 -100 100 0 A#/Bb r_as s_as, f 5;
#X floatatom 60 350 5 -100 100 0 B r_b s_b, f 5;
#N canvas 691 341 150 166 whichnote 0;
#X obj 30 10 inlet;
#X floatatom 30 39 5 0 0 0 - - -, f 5;
#X obj 30 67 mod 12;
#X floatatom 30 96 5 0 0 0 - - -, f 5;
#X obj 30 124 outlet;
#X connect 0 0 1 0;
#X connect 1 0 2 0;
#X connect 2 0 3 0;
#X connect 3 0 4 0;
#X restore 160 81 pd whichnote;
#X floatatom 160 50 5 0 0 0 - - -, f 5;
#X floatatom 160 110 5 0 0 0 - - -, f 5;
#X obj 160 138 sel 0 1 2 3 4 5 6 7 8 9 10 11;
#X floatatom 140 319 5 0 0 0 - - -, f 5;
#X obj 140 347 outlet;
#X floatatom 230 250 5 0 0 0 - - -, f 5;
#X obj 140 250 t f b;
#N canvas 687 44 189 311 midinotecent 0;
#X obj 20 10 inlet;
#X floatatom 70 60 5 -50 50 0 Cents - -, f 5;
#X floatatom 20 100 5 0 0 0 - - -, f 5;
#X floatatom 70 117 5 0 0 0 - - -, f 5;
#X obj 20 220 +;
#X floatatom 20 249 5 0 0 0 - - -, f 5;
#X obj 20 281 outlet;
#X obj 70 88 / 100;
#X obj 70 10 inlet;
#X obj 120 90 / 100;
#X floatatom 120 120 5 0 0 0 - - -, f 5;
#X floatatom 120 60 5 0 0 0 - - -, f 5;
#X obj 120 10 inlet;
#X text 130 30 A4;
#X floatatom 70 190 5 0 0 0 - - -, f 5;
#X obj 70 160 -;
#X connect 0 0 2 0;
#X connect 1 0 7 0;
#X connect 2 0 4 0;
#X connect 3 0 15 0;
#X connect 4 0 5 0;
#X connect 5 0 6 0;
#X connect 7 0 3 0;
#X connect 8 0 1 0;
#X connect 9 0 10 0;
#X connect 10 0 15 1;
#X connect 11 0 9 0;
#X connect 12 0 11 0;
#X connect 14 0 4 1;
#X connect 15 0 14 0;
#X restore 140 290 pd midinotecent;
#N canvas 459 236 753 160 cents's 0;
#X floatatom 30 80 5 -50 50 3 Do - -, f 5;
#X floatatom 90 80 5 -50 50 3 Do$-Reb - -, f 5;
#X floatatom 150 80 5 -50 50 3 Re - -, f 5;
#X floatatom 210 80 5 -50 50 3 Re$-Mib - -, f 5;
#X floatatom 270 80 5 -50 50 3 Mi - -, f 5;
#X floatatom 330 80 5 -50 50 3 Fa - -, f 5;
#X floatatom 390 80 5 -50 50 3 Fa$-Solb - -, f 5;
#X floatatom 450 80 5 -50 50 3 Sol - -, f 5;
#X floatatom 510 80 5 -50 50 3 Sol$-Lab - -, f 5;
#X floatatom 570 80 5 -50 50 3 La - -, f 5;
#X floatatom 630 80 5 -50 50 3 La$-Sib - -, f 5;
#X floatatom 690 80 5 -50 50 3 Si - -, f 5;
#X obj 30 10 inlet;
#X obj 90 10 inlet;
#X obj 150 10 inlet;
#X obj 210 10 inlet;
#X obj 270 10 inlet;
#X obj 330 10 inlet;
#X obj 390 10 inlet;
#X obj 450 10 inlet;
#X obj 510 10 inlet;
#X obj 570 10 inlet;
#X obj 630 10 inlet;
#X obj 690 10 inlet;
#X obj 30 120 outlet;
#X obj 90 120 outlet;
#X obj 150 120 outlet;
#X obj 210 120 outlet;
#X obj 270 120 outlet;
#X obj 330 120 outlet;
#X obj 390 120 outlet;
#X obj 450 120 outlet;
#X obj 510 120 outlet;
#X obj 570 120 outlet;
#X obj 630 120 outlet;
#X obj 690 120 outlet;
#X obj 40 40 r s_c;
#X obj 100 40 r s_cs;
#X obj 160 40 r s_d;
#X obj 220 40 r s_ds;
#X obj 280 40 r s_e;
#X obj 340 40 r s_f;
#X obj 400 40 r s_fs;
#X obj 460 40 r s_g;
#X obj 520 40 r s_gs;
#X obj 580 40 r s_a;
#X obj 640 40 r s_as;
#X obj 700 40 r s_b;
#X connect 0 0 24 0;
#X connect 1 0 25 0;
#X connect 2 0 26 0;
#X connect 3 0 27 0;
#X connect 4 0 28 0;
#X connect 5 0 29 0;
#X connect 6 0 30 0;
#X connect 7 0 31 0;
#X connect 8 0 32 0;
#X connect 9 0 33 0;
#X connect 10 0 34 0;
#X connect 11 0 35 0;
#X connect 12 0 0 0;
#X connect 13 0 1 0;
#X connect 14 0 2 0;
#X connect 15 0 3 0;
#X connect 16 0 4 0;
#X connect 17 0 5 0;
#X connect 18 0 6 0;
#X connect 19 0 7 0;
#X connect 20 0 8 0;
#X connect 21 0 9 0;
#X connect 22 0 10 0;
#X connect 23 0 11 0;
#X connect 36 0 0 0;
#X connect 37 0 1 0;
#X connect 38 0 2 0;
#X connect 39 0 3 0;
#X connect 40 0 4 0;
#X connect 41 0 5 0;
#X connect 42 0 6 0;
#X connect 43 0 7 0;
#X connect 44 0 8 0;
#X connect 45 0 9 0;
#X connect 46 0 10 0;
#X connect 47 0 11 0;
#X restore 160 181 pd cents's notes;
#X obj 140 20 inlet;
#X connect 12 0 14 0;
#X connect 13 0 12 0;
#X connect 14 0 15 0;
#X connect 15 0 21 0;
#X connect 15 1 21 1;
#X connect 15 2 21 2;
#X connect 15 3 21 3;
#X connect 15 4 21 4;
#X connect 15 5 21 5;
#X connect 15 6 21 6;
#X connect 15 7 21 7;
#X connect 15 8 21 8;
#X connect 15 9 21 9;
#X connect 15 10 21 10;
#X connect 15 11 21 11;
#X connect 16 0 17 0;
#X connect 18 0 20 1;
#X connect 19 0 20 0;
#X connect 19 1 18 0;
#X connect 20 0 16 0;
#X connect 21 0 18 0;
#X connect 21 1 18 0;
#X connect 21 2 18 0;
#X connect 21 3 18 0;
#X connect 21 4 18 0;
#X connect 21 5 18 0;
#X connect 21 6 18 0;
#X connect 21 7 18 0;
#X connect 21 8 18 0;
#X connect 21 9 18 0;
#X connect 21 9 20 2;
#X connect 21 10 18 0;
#X connect 21 11 18 0;
#X connect 22 0 13 0;
#X connect 22 0 19 0;
